<svg width="37" height="35" viewBox="0 0 37 35" fill="none" xmlns="http://www.w3.org/2000/svg">
<rect width="37" height="35" rx="17.5" fill="url(#paint0_linear_2_32)"/>
<path d="M17.0544 3.74859C17.3639 2.84902 18.6361 2.84901 18.9456 3.74859L21.8091 12.072C21.948 12.4757 22.3278 12.7467 22.7547 12.7467L31.8942 12.7467C32.8767 12.7467 33.2701 14.0154 32.46 14.5713L25.1662 19.5761C24.7955 19.8305 24.6401 20.3009 24.7864 20.726L27.5953 28.8905C27.9088 29.8019 26.8785 30.5857 26.0839 30.0404L18.5658 24.8817C18.2249 24.6477 17.7751 24.6477 17.4342 24.8817L9.91614 30.0404C9.12147 30.5857 8.09122 29.8019 8.40475 28.8905L11.2136 20.726C11.3599 20.3009 11.2045 19.8305 10.8338 19.5761L3.53998 14.5713C2.72986 14.0154 3.12327 12.7467 4.10577 12.7467L13.2453 12.7467C13.6722 12.7467 14.052 12.4757 14.1909 12.072L17.0544 3.74859Z" fill="#EF1189"/>
<defs>
<linearGradient id="paint0_linear_2_32" x1="18.5" y1="0" x2="18.5" y2="35" gradientUnits="userSpaceOnUse">
<stop stop-color="white"/>
<stop offset="1" stop-color="white" stop-opacity="0"/>
</linearGradient>
</defs>
</svg>
