<svg width="209" height="57" viewBox="0 0 209 57" fill="none" xmlns="http://www.w3.org/2000/svg">
<path d="M30.2507 52.352L29.8667 52.8213C29.6107 53.1058 29.1556 53.4756 28.5013 53.9307C27.8756 54.3573 27.1076 54.7982 26.1973 55.2533C25.3156 55.68 24.1209 56.0356 22.6133 56.32C21.1342 56.6329 19.5413 56.7893 17.8347 56.7893C12.0604 56.7893 7.63733 55.0969 4.56533 51.712C1.52178 48.3271 0 43.8471 0 38.272C0 35.2569 0.469333 32.512 1.408 30.0373C2.34667 27.5627 3.62667 25.5147 5.248 23.8933C6.89778 22.2436 8.81778 20.9778 11.008 20.096C13.2267 19.1858 15.616 18.7307 18.176 18.7307C23.1253 18.7307 26.9653 19.9111 29.696 22.272C30.2933 22.8693 30.592 23.168 30.592 23.168L29.952 33.1947L23.8933 33.2373L21.4613 26.7093C21.2338 26.6524 20.9209 26.624 20.5227 26.624C17.9342 26.624 16.1422 27.52 15.1467 29.312C14.1796 31.0756 13.696 34.1476 13.696 38.528C13.696 40.4338 13.8524 42.0693 14.1653 43.4347C14.4782 44.7716 14.8338 45.7813 15.232 46.464C15.6302 47.1182 16.1564 47.6302 16.8107 48C17.4933 48.3698 18.048 48.5831 18.4747 48.64C18.9013 48.6969 19.4276 48.7253 20.0533 48.7253C21.4756 48.7253 22.9262 48.5547 24.4053 48.2133C25.9129 47.872 27.1502 47.3173 28.1173 46.5493L30.2507 52.352Z" fill="#020204"/>
<path d="M54.4583 55.8933H40.6343V7.63733L38.0743 6.10133V2.13334L51.7703 0H54.5437V25.1307L55.0557 24.4907C55.397 24.0356 55.8948 23.4951 56.549 22.8693C57.2317 22.2436 57.9854 21.632 58.8103 21.0347C59.6352 20.4089 60.6166 19.8827 61.7543 19.456C62.9206 19.0009 64.0583 18.7733 65.1677 18.7733C69.0646 18.7733 71.8094 19.84 73.4023 21.9733C75.0237 24.1067 75.8343 27.6764 75.8343 32.6827C75.8343 32.8533 75.8343 33.1093 75.8343 33.4507C75.8059 33.792 75.7917 34.0622 75.7917 34.2613V55.8933H61.7117V33.024C61.797 30.3502 60.6592 29.0133 58.2983 29.0133C58.0708 29.0133 57.8432 29.0276 57.6157 29.056C57.4166 29.0844 57.2032 29.1556 56.9757 29.2693C56.7481 29.3831 56.5632 29.4684 56.421 29.5253C56.3072 29.5822 56.1223 29.696 55.8663 29.8667C55.6388 30.0373 55.4823 30.1511 55.397 30.208C55.3401 30.2649 55.1694 30.4071 54.885 30.6347C54.629 30.8622 54.4868 30.9902 54.4583 31.0187V55.8933Z" fill="#020204"/>
<path d="M105.939 52.096L105.512 52.5653C105.228 52.9067 104.787 53.3049 104.189 53.76C103.62 54.2151 102.952 54.6702 102.184 55.1253C101.444 55.5804 100.534 55.9644 99.4533 56.2773C98.3725 56.6187 97.2631 56.7893 96.1253 56.7893C88.4453 56.7893 84.6053 52.992 84.6053 45.3973C84.6053 43.9182 84.8756 42.5671 85.416 41.344C85.9565 40.0924 86.6533 39.04 87.5067 38.1867C88.36 37.3333 89.384 36.5796 90.5787 35.9253C91.7733 35.2427 92.968 34.7164 94.1627 34.3467C95.3858 33.9484 96.6658 33.6213 98.0027 33.3653C99.3396 33.1093 100.534 32.9387 101.587 32.8533C102.639 32.768 103.649 32.7253 104.616 32.7253V31.9573C104.616 30.2222 104.147 28.9991 103.208 28.288C102.298 27.5769 100.819 27.2213 98.7707 27.2213C97.0071 27.2213 95.1724 27.4347 93.2667 27.8613C91.3609 28.2596 89.8676 28.7431 88.7867 29.312L86.056 23.5093C87.9902 22.2578 90.5076 21.1627 93.608 20.224C96.7085 19.2569 99.8658 18.7733 103.08 18.7733C105.924 18.7733 108.271 19.0578 110.12 19.6267C111.969 20.1671 113.462 21.1058 114.6 22.4427C115.766 23.7511 116.591 25.4293 117.075 27.4773C117.558 29.4969 117.8 32.0711 117.8 35.2V52.5653L118.995 55.8933H107.304L105.939 52.096ZM102.568 49.28C102.938 49.28 103.279 49.2089 103.592 49.0667C103.933 48.896 104.189 48.7396 104.36 48.5973C104.531 48.4267 104.616 48.3413 104.616 48.3413V38.1013C102.881 38.1013 101.501 38.5849 100.477 39.552C99.4533 40.4907 98.9413 41.9556 98.9413 43.9467C98.9413 47.5022 100.15 49.28 102.568 49.28Z" fill="#020204"/>
<path d="M153.507 55.8933L151.843 50.3893C151.616 50.7876 151.346 51.1858 151.033 51.584C150.748 51.9822 150.279 52.4942 149.625 53.12C148.97 53.7173 148.274 54.2436 147.534 54.6987C146.794 55.1538 145.87 55.552 144.761 55.8933C143.651 56.2347 142.485 56.4053 141.262 56.4053C136.569 56.4053 133.127 54.7982 130.937 51.584C128.746 48.3698 127.651 43.904 127.651 38.1867C127.651 34.6027 128.163 31.4169 129.187 28.6293C130.211 25.8133 131.818 23.552 134.009 21.8453C136.199 20.1387 138.844 19.2853 141.945 19.2853C143.794 19.2853 145.443 19.4844 146.894 19.8827C148.345 20.2809 149.596 20.7644 150.649 21.3333V8.40533L145.955 6.82667V2.13334L161.059 0H164.387V55.8933H153.507ZM147.491 48.0427C148.003 48.0427 148.53 47.9573 149.07 47.7867C149.61 47.5876 150.137 47.3173 150.649 46.976V25.5147C149.767 25.3156 148.956 25.216 148.217 25.216C144.434 25.2444 142.528 28.16 142.499 33.9627V39.936C142.499 42.6098 142.969 44.6293 143.907 45.9947C144.846 47.36 146.041 48.0427 147.491 48.0427Z" fill="#020204"/>
<path d="M194.989 52.096L194.562 52.5653C194.278 52.9067 193.837 53.3049 193.239 53.76C192.67 54.2151 192.002 54.6702 191.234 55.1253C190.494 55.5804 189.584 55.9644 188.503 56.2773C187.422 56.6187 186.313 56.7893 185.175 56.7893C177.495 56.7893 173.655 52.992 173.655 45.3973C173.655 43.9182 173.926 42.5671 174.466 41.344C175.006 40.0924 175.703 39.04 176.557 38.1867C177.41 37.3333 178.434 36.5796 179.629 35.9253C180.823 35.2427 182.018 34.7164 183.213 34.3467C184.436 33.9484 185.716 33.6213 187.053 33.3653C188.39 33.1093 189.584 32.9387 190.637 32.8533C191.689 32.768 192.699 32.7253 193.666 32.7253V31.9573C193.666 30.2222 193.197 28.9991 192.258 28.288C191.348 27.5769 189.869 27.2213 187.821 27.2213C186.057 27.2213 184.222 27.4347 182.317 27.8613C180.411 28.2596 178.918 28.7431 177.837 29.312L175.106 23.5093C177.04 22.2578 179.558 21.1627 182.658 20.224C185.758 19.2569 188.916 18.7733 192.13 18.7733C194.974 18.7733 197.321 19.0578 199.17 19.6267C201.019 20.1671 202.512 21.1058 203.65 22.4427C204.816 23.7511 205.641 25.4293 206.125 27.4773C206.608 29.4969 206.85 32.0711 206.85 35.2V52.5653L208.045 55.8933H196.354L194.989 52.096ZM191.618 49.28C191.988 49.28 192.329 49.2089 192.642 49.0667C192.983 48.896 193.239 48.7396 193.41 48.5973C193.581 48.4267 193.666 48.3413 193.666 48.3413V38.1013C191.931 38.1013 190.551 38.5849 189.527 39.552C188.503 40.4907 187.991 41.9556 187.991 43.9467C187.991 47.5022 189.2 49.28 191.618 49.28Z" fill="#020204"/>
<path fill-rule="evenodd" clip-rule="evenodd" d="M205.416 25.2812L176.488 26.4451L177.837 29.312C178.918 28.7431 180.411 28.2596 182.317 27.8613C184.222 27.4347 186.057 27.2213 187.821 27.2213C189.869 27.2213 191.348 27.5769 192.258 28.288C193.197 28.9991 193.666 30.2222 193.666 31.9573V32.7253C192.699 32.7253 191.689 32.768 190.637 32.8533C189.584 32.9387 188.39 33.1093 187.053 33.3653C185.716 33.6213 184.436 33.9484 183.213 34.3467C182.018 34.7164 180.823 35.2427 179.629 35.9253C178.434 36.5796 177.41 37.3333 176.557 38.1867C176.163 38.5808 175.802 39.0174 175.474 39.4964L190.398 38.896C191.292 38.3662 192.382 38.1013 193.666 38.1013V38.7645L206.85 38.2341V35.2C206.85 32.0711 206.608 29.4969 206.125 27.4773C205.939 26.6908 205.703 25.9587 205.416 25.2812ZM14.9698 45.9538L1.38986 46.5002C0.463288 44.0908 0 41.3481 0 38.272C0 36.6085 0.142859 35.0273 0.428578 33.5283L14.0522 32.9802C13.8147 34.5082 13.696 36.3575 13.696 38.528C13.696 40.4338 13.8524 42.0693 14.1653 43.4347C14.4079 44.4709 14.676 45.3106 14.9698 45.9538ZM54.4583 44.3651L40.6343 44.9213V31.9108L54.4583 31.3546V44.3651ZM75.7917 43.5068L61.7117 44.0733V33.024C61.7359 32.2657 61.6617 31.615 61.4892 31.0717L75.778 30.4969C75.8156 31.1922 75.8343 31.9208 75.8343 32.6827V33.4507C75.8059 33.792 75.7917 34.0622 75.7917 34.2613V43.5068ZM117.8 41.8168V35.2C117.8 32.7288 117.649 30.6036 117.348 28.8244L104.094 29.3576C104.442 30.0344 104.616 30.901 104.616 31.9573V32.7253C103.649 32.7253 102.639 32.768 101.587 32.8533C100.534 32.9387 99.3396 33.1093 98.0027 33.3653C96.6658 33.6213 95.3858 33.9484 94.1627 34.3467C92.968 34.7164 91.7733 35.2427 90.5787 35.9253C89.384 36.5796 88.36 37.3333 87.5067 38.1867C86.6533 39.04 85.9565 40.0924 85.416 41.344C85.1634 41.9157 84.9698 42.5154 84.8353 43.143L99.0344 42.5717C99.2245 41.2661 99.7054 40.2596 100.477 39.552C101.501 38.5849 102.881 38.1013 104.616 38.1013V42.3472L117.8 41.8168ZM164.387 39.9425V26.9319L150.649 27.4847V40.4952L164.387 39.9425ZM142.518 40.8223L127.778 41.4153C127.694 40.3875 127.651 39.3113 127.651 38.1867C127.651 34.6027 128.163 31.4169 129.187 28.6293C129.222 28.5335 129.258 28.4383 129.294 28.3438L143.744 27.7624C142.928 29.2111 142.512 31.2779 142.499 33.9627V39.936C142.499 40.2399 142.505 40.5353 142.518 40.8223ZM30.0067 32.3383L23.6536 32.5939L23.8933 33.2373L29.952 33.1947L30.0067 32.3383Z" fill="#FE9696" fill-opacity="0.97"/>
</svg>
