<svg width="50" height="50" viewBox="0 0 50 50" fill="none" xmlns="http://www.w3.org/2000/svg">
<rect width="50" height="50" rx="17.5" fill="url(#paint0_linear_3_2)"/>
<path d="M23.3734 4.35053C23.673 3.42981 24.9756 3.42981 25.2752 4.35053L29.5607 17.519C29.6948 17.9308 30.0786 18.2096 30.5117 18.2096H44.3765C45.3456 18.2096 45.7481 19.45 44.9637 20.019L33.7495 28.1537C33.3985 28.4083 33.2516 28.8602 33.3858 29.2726L37.6698 42.4367C37.9696 43.3577 36.9158 44.1243 36.1318 43.5556L24.9115 35.4165C24.5613 35.1625 24.0874 35.1625 23.7371 35.4165L12.5169 43.5556C11.7329 44.1243 10.6791 43.3577 10.9788 42.4367L15.2629 29.2726C15.3971 28.8602 15.2502 28.4083 14.8991 28.1537L3.68499 20.019C2.90053 19.45 3.30305 18.2096 4.27216 18.2096H18.137C18.57 18.2096 18.9539 17.9308 19.0879 17.519L23.3734 4.35053Z" fill="#EF1189"/>
<defs>
<linearGradient id="paint0_linear_3_2" x1="25" y1="0" x2="25" y2="50" gradientUnits="userSpaceOnUse">
<stop stop-color="white"/>
<stop offset="1" stop-color="white" stop-opacity="0"/>
</linearGradient>
</defs>
</svg>
